<?xml version="1.0" encoding="utf-8"?>
<!-- Generator: Adobe Illustrator 26.4.1, SVG Export Plug-In . SVG Version: 6.00 Build 0)  -->
<svg version="1.1" id="Layer_1" xmlns="http://www.w3.org/2000/svg" xmlns:xlink="http://www.w3.org/1999/xlink" x="0px" y="0px"
	 viewBox="0 0 1264.1 441.4" style="enable-background:new 0 0 1264.1 441.4;" xml:space="preserve">
<g>
	<path d="M0,439.9V0h141v50.8H62.4v136.7H141v50.8H62.4v201.4H0z"/>
	<path d="M216.5,441.4c-14.1,0-25.6-1.5-34.3-4.4c-8.7-2.9-15.9-7.3-21.6-12.9c-4.9-5.1-8.7-11.6-11.6-19.3
		c-2.8-7.7-4.2-17.8-4.2-30.4V119.8c0-12.6,1.4-22.8,4.2-30.6c2.8-7.8,6.7-14.2,11.6-19.1c5.6-5.6,12.8-9.9,21.6-12.9
		c8.7-2.9,20.2-4.4,34.3-4.4c14.4,0,25.9,1.5,34.5,4.4c8.6,3,15.7,7.3,21.4,12.9c5.1,4.9,9.1,11.2,11.7,19.1c2.7,7.8,4,18,4,30.6
		v254.6c0,12.6-1.3,22.7-4,30.4c-2.7,7.7-6.6,14.1-11.7,19.3c-5.7,5.7-12.8,10-21.4,12.9C242.3,439.9,230.8,441.4,216.5,441.4z
		 M216.5,400.6c5.1,0,9.2-1.5,12.3-4.6c1.5-1.5,2.7-3.5,3.5-5.8s1.2-5.8,1.2-10.4V114.4c0-4.6-0.4-8.1-1.2-10.4
		c-0.8-2.3-1.9-4.2-3.5-5.8c-3.1-3.1-7.2-4.6-12.3-4.6c-5.1,0-9.2,1.5-12.3,4.6c-1.5,1.5-2.7,3.5-3.5,5.8c-0.8,2.3-1.2,5.8-1.2,10.4
		v265.4c0,4.6,0.4,8.1,1.2,10.4s1.9,4.2,3.5,5.8C207.2,399,211.3,400.6,216.5,400.6z"/>
	<path d="M291.9,439.9V54.3h54.7v14.3c4.6-5.9,10.3-10.2,17.1-12.9c6.8-2.7,14.1-4,21.8-4c14.9,0,26.7,4.4,35.4,13.1
		c4.6,4.6,8.1,10.5,10.6,17.5c2.4,7.1,3.7,16.6,3.7,28.7v328.9h-54.7V118.6c0-4.6-0.4-8.1-1.2-10.4c-0.8-2.3-1.9-4.2-3.5-5.8
		c-3.1-3.1-7.2-4.6-12.3-4.6c-5.1,0-9.2,1.5-12.3,4.6c-1.5,1.5-2.7,3.5-3.5,5.8c-0.8,2.3-1.2,5.8-1.2,10.4v321.2H291.9z"/>
	<path d="M500.7,439.9c-8.5,0-15.5-0.9-21-2.7c-5.5-1.8-10.1-4.5-13.7-8.1c-3.3-3.1-5.8-6.9-7.5-11.6c-1.7-4.6-2.5-10.5-2.5-17.7
		V97.4h-19.3V54.3H456V0h54.7v54.3h25.4v43.1h-25.4v287.3c0,6.9,3.5,10.4,10.4,10.4h15v44.7H500.7z"/>
	<path d="M582,439.9L531.9,0h62l28.5,280.8L650.9,0h56.6l-50.1,439.9H582z"/>
	<path d="M709.5,40.1V0h54.7v40.1H709.5z M709.5,439.9V54.3h54.7v385.5H709.5z"/>
	<path d="M839.6,441.4c-22.6,0-40.2-5.3-52.8-15.8C774.3,415.1,768,396.2,768,369v-74h54.7v83.2c0,7.7,1.4,13.4,4.2,16.9
		c2.8,3.6,7.1,5.4,12.7,5.4c5.9,0,10.2-1.7,12.9-5c2.7-3.3,4-8.9,4-16.6c0-12.1-2.1-23.8-6.2-35.2c-4.1-11.4-9.5-24.8-16.2-40.2
		L787.6,198c-6.4-14.4-11.2-27.4-14.3-39.1c-3.1-11.7-4.6-23.9-4.6-36.8c0-17.5,2.9-31.2,8.9-41.2c5.9-10,14.2-17.2,24.8-21.6
		c10.7-4.4,23-6.5,37.2-6.5c14.9,0,27.6,2.2,38.1,6.5c10.5,4.4,18.6,11.8,24.3,22.3c5.6,10.5,8.5,25,8.5,43.5v70.1h-54.7v-79.3
		c0-7.7-1.2-13.3-3.7-16.9c-2.4-3.6-6.6-5.4-12.5-5.4c-5.7,0-9.8,1.7-12.3,5c-2.6,3.3-3.9,8.9-3.9,16.6c0,8.7,1.5,18.4,4.4,29.1
		c2.9,10.7,7.6,23.2,14.1,37.6l42.4,95.5c4.6,10.3,9,20.2,13.1,29.7c4.1,9.5,7.4,19.4,10,29.7c2.6,10.3,3.8,21.6,3.8,33.9
		c0,18-2.8,32.1-8.5,42.4c-5.7,10.3-13.8,17.6-24.5,22C867.7,439.2,854.8,441.4,839.6,441.4z"/>
	<path d="M915.1,40.1V0h54.7v40.1H915.1z M915.1,439.9V54.3h54.7v385.5H915.1z"/>
	<path d="M1045.3,441.4c-14.1,0-25.6-1.5-34.3-4.4c-8.7-2.9-15.9-7.3-21.6-12.9c-4.9-5.1-8.7-11.6-11.6-19.3
		c-2.8-7.7-4.2-17.8-4.2-30.4V119.8c0-12.6,1.4-22.8,4.2-30.6c2.8-7.8,6.7-14.2,11.6-19.1c5.6-5.6,12.8-9.9,21.6-12.9
		c8.7-2.9,20.2-4.4,34.3-4.4c14.4,0,25.9,1.5,34.5,4.4c8.6,3,15.7,7.3,21.4,12.9c5.1,4.9,9.1,11.2,11.7,19.1c2.7,7.8,4,18,4,30.6
		v254.6c0,12.6-1.3,22.7-4,30.4c-2.7,7.7-6.6,14.1-11.7,19.3c-5.7,5.7-12.8,10-21.4,12.9C1071.2,439.9,1059.7,441.4,1045.3,441.4z
		 M1045.3,400.6c5.1,0,9.2-1.5,12.3-4.6c1.5-1.5,2.7-3.5,3.5-5.8c0.8-2.3,1.2-5.8,1.2-10.4V114.4c0-4.6-0.4-8.1-1.2-10.4
		c-0.8-2.3-1.9-4.2-3.5-5.8c-3.1-3.1-7.2-4.6-12.3-4.6c-5.1,0-9.2,1.5-12.3,4.6c-1.5,1.5-2.7,3.5-3.5,5.8c-0.8,2.3-1.2,5.8-1.2,10.4
		v265.4c0,4.6,0.4,8.1,1.2,10.4s1.9,4.2,3.5,5.8C1036.1,399,1040.2,400.6,1045.3,400.6z"/>
	<path d="M1120.8,439.9V54.3h54.7v14.3c4.6-5.9,10.3-10.2,17.1-12.9c6.8-2.7,14.1-4,21.8-4c14.9,0,26.7,4.4,35.4,13.1
		c4.6,4.6,8.1,10.5,10.6,17.5c2.4,7.1,3.7,16.6,3.7,28.7v328.9h-54.7V118.6c0-4.6-0.4-8.1-1.2-10.4c-0.8-2.3-1.9-4.2-3.5-5.8
		c-3.1-3.1-7.2-4.6-12.3-4.6c-5.1,0-9.2,1.5-12.3,4.6c-1.5,1.5-2.7,3.5-3.5,5.8c-0.8,2.3-1.2,5.8-1.2,10.4v321.2H1120.8z"/>
</g>
</svg>
